<svg width="256" height="226" viewBox="0 0 256 226" fill="none" xmlns="http://www.w3.org/2000/svg">
<g clip-path="url(#clip0_16_148)">
<path fill-rule="evenodd" clip-rule="evenodd" d="M153.424 95.2657C140.879 74.8028 124.188 55.45 102.648 44.8963C94.8113 41.0556 86.5771 39.1946 78.1643 37.2135C77.5746 37.0737 76.9802 37.4408 76.8389 38.033C76.7002 38.6266 77.0673 39.221 77.6609 39.3598C85.9108 41.3036 93.9923 43.1099 101.678 46.8764C122.912 57.2802 139.317 76.4141 151.655 96.5966L151.36 96.8114C148.149 99.1354 146.372 104.21 145.883 110.331C145.182 119.105 147.008 130.024 150.138 137.281C151.545 140.542 153.235 143.075 155.044 144.446C156.453 145.516 157.955 145.928 159.488 145.601C162.756 144.902 164.594 141.55 165.111 136.729C166.196 126.648 161.864 110.043 158.161 103.379C157.003 101.298 155.806 99.2176 154.564 97.1489C155.118 96.7247 155.662 96.3117 156.209 95.934C157.771 94.8623 159.386 94.0695 161.57 94.1487C164.973 94.2758 168.234 95.8429 171.224 98.0476C175.887 101.492 179.878 106.505 182.673 110.444C198.236 132.384 198.995 155.268 194.854 175.407C190.668 195.744 181.504 213.31 177.34 224.39C177.125 224.96 177.416 225.594 177.985 225.809C178.555 226.024 179.191 225.735 179.404 225.164C183.595 214.013 192.801 196.324 197.012 175.85C201.267 155.177 200.447 131.691 184.473 109.169C181.562 105.065 177.391 99.86 172.534 96.2741C169.171 93.7932 165.48 92.0881 161.65 91.9455C158.213 91.8189 155.91 93.3905 153.424 95.2657ZM152.799 98.4917L152.651 98.5971C149.844 100.628 148.508 105.153 148.082 110.506C147.408 118.937 149.155 129.431 152.165 136.408C153.195 138.801 154.367 140.769 155.654 142.057C156.717 143.117 157.835 143.7 159.026 143.443C160.153 143.206 160.977 142.459 161.582 141.384C162.294 140.123 162.709 138.442 162.92 136.495C163.961 126.808 159.793 110.853 156.233 104.45C155.126 102.462 153.983 100.474 152.799 98.4917Z" fill="black"/>
<path fill-rule="evenodd" clip-rule="evenodd" d="M74.0341 38.767C74.3538 38.4054 74.9305 38.0516 75.5552 37.6786C77.0422 36.7883 78.8877 35.9913 79.7423 35.5802C80.2915 35.3144 80.5188 34.6547 80.2555 34.1068C79.9898 33.5576 79.3314 33.3278 78.7822 33.5935C77.736 34.0983 75.2786 35.1651 73.6439 36.2818C72.7675 36.8814 72.1184 37.5286 71.8454 38.105C71.3789 39.0858 71.7816 40.0998 73.2718 40.9145C75.0352 41.8771 78.7681 42.8721 80.8658 45.4831C81.2453 45.9573 81.943 46.0321 82.4147 45.6511C82.8904 45.2691 82.9663 44.5754 82.5843 44.0997C80.5831 41.6116 77.3006 40.354 75.1617 39.3855C74.7555 39.2009 74.3011 38.9315 74.0341 38.767Z" fill="black"/>
</g>
<defs>
<clipPath id="clip0_16_148">
<rect width="187" height="187" fill="white" transform="translate(161.887 255.49) rotate(-149.963)"/>
</clipPath>
</defs>
</svg>
